<svg width="72" height="72" viewBox="0 0 72 72" fill="none" xmlns="http://www.w3.org/2000/svg">
    <path d="M0 15.6C0 6.98436 6.98436 0 15.6 0H56.4C65.0156 0 72 6.98436 72 15.6V56.4C72 65.0156 65.0156 72 56.4 72H15.6C6.98436 72 0 65.0156 0 56.4V15.6Z" fill="#0B0C0C"/>
    <path d="M17.8054 59.7835C17.2989 60.0973 16.6761 60.2543 15.9371 60.2543C14.7206 60.2543 13.7242 59.8295 12.9478 58.9801C12.1381 58.1264 11.7333 56.9589 11.7333 55.4776C11.7333 53.9795 12.1423 52.7786 12.9602 51.8747C13.7781 50.9709 14.8597 50.5189 16.2049 50.5189C17.3716 50.5189 18.3078 50.8181 19.0136 51.4165C19.7236 52.0107 20.1305 52.7535 20.2343 53.6448H18.3473C18.202 53.0129 17.847 52.5715 17.2823 52.3204C16.9668 52.1823 16.6159 52.1132 16.2298 52.1132C15.4908 52.1132 14.8825 52.3957 14.4051 52.9606C13.9317 53.5213 13.6951 54.3666 13.6951 55.4964C13.6951 56.6346 13.9525 57.4402 14.4673 57.913C14.9822 58.3859 15.5676 58.6223 16.2236 58.6223C16.8671 58.6223 17.3944 58.4361 17.8054 58.0636C18.2165 57.687 18.4697 57.1954 18.5652 56.5886H16.4416V55.0445H20.2654V60.0095H18.995L18.8019 58.8545C18.4324 59.2939 18.1002 59.6036 17.8054 59.7835Z" fill="white"/>
    <path d="M26.1632 60.2668C24.8512 60.2668 23.8485 59.9069 23.1551 59.1872C22.2251 58.3043 21.7601 57.0322 21.7601 55.3709C21.7601 53.6762 22.2251 52.4041 23.1551 51.5546C23.8485 50.8349 24.8512 50.475 26.1632 50.475C27.4752 50.475 28.4778 50.8349 29.1712 51.5546C30.0971 52.4041 30.56 53.6762 30.56 55.3709C30.56 57.0322 30.0971 58.3043 29.1712 59.1872C28.4778 59.9069 27.4752 60.2668 26.1632 60.2668ZM27.9755 57.7812C28.4197 57.2163 28.6418 56.4128 28.6418 55.3709C28.6418 54.3331 28.4176 53.5318 27.9692 52.9669C27.525 52.3978 26.923 52.1132 26.1632 52.1132C25.4034 52.1132 24.7972 52.3957 24.3447 52.9606C23.8921 53.5255 23.6658 54.329 23.6658 55.3709C23.6658 56.4128 23.8921 57.2163 24.3447 57.7812C24.7972 58.3461 25.4034 58.6286 26.1632 58.6286C26.923 58.6286 27.5271 58.3461 27.9755 57.7812Z" fill="white"/>
    <path d="M31.3509 50.7575H33.3999L35.3928 57.7812L37.4044 50.7575H39.3973L36.2647 60.0095H34.4524L31.3509 50.7575Z" fill="white"/>
    <path d="M39.1917 58.139H41.0788V60.0095H39.1917V58.139Z" fill="white"/>
    <path d="M48.3466 56.4442V50.7575H50.2959V56.4442C50.2959 57.4276 50.1444 58.1934 49.8413 58.7415C49.2767 59.7458 48.1992 60.248 46.6091 60.248C45.0189 60.248 43.9394 59.7458 43.3706 58.7415C43.0675 58.1934 42.916 57.4276 42.916 56.4442V50.7575H44.8653V56.4442C44.8653 57.0803 44.94 57.5448 45.0895 57.8377C45.322 58.3566 45.8285 58.616 46.6091 58.616C47.3855 58.616 47.8899 58.3566 48.1224 57.8377C48.2719 57.5448 48.3466 57.0803 48.3466 56.4442Z" fill="white"/>
    <path d="M60.2667 60.0095H57.8005L54.9668 55.9672L54.0513 56.915V60.0095H52.1643V50.7575H54.0513V54.5675L57.5949 50.7575H60.0736L56.312 54.5675L60.2667 60.0095Z" fill="white"/>
    <path fill-rule="evenodd" clip-rule="evenodd" d="M21.6689 20.7191C22.8816 21.2261 24.3369 20.6515 24.822 19.4687C25.3417 18.2521 24.7527 16.8327 23.4707 16.3596C22.2233 15.8864 20.8373 16.4609 20.3176 17.6776C19.8325 18.8604 20.4215 20.2122 21.6689 20.7191ZM16.125 23.8621C17.3724 24.369 18.8277 23.7945 19.3128 22.6117C19.8325 21.395 19.2435 19.9756 17.9614 19.5363C16.7141 19.0294 15.3281 19.6039 14.8084 20.8205C14.3233 22.0033 14.9123 23.3551 16.125 23.8621ZM14.5312 29.8438C15.7439 30.3507 17.1992 29.7762 17.6842 28.5596C18.204 27.343 17.615 25.9574 16.3329 25.4842C15.1202 24.9773 13.6996 25.5856 13.1799 26.7685C12.6948 27.9513 13.2838 29.3369 14.5312 29.8438ZM27.8018 22.6117C29.0145 23.1186 30.4698 22.5441 30.9549 21.3274C31.4746 20.1108 30.8856 18.7252 29.6036 18.2521C28.3562 17.7452 26.9702 18.3535 26.4505 19.5363C26.0001 20.7529 26.5891 22.1385 27.8018 22.6117ZM50.1159 20.7191C48.8685 21.2261 47.4133 20.6515 46.9628 19.4687C46.4431 18.2521 47.0321 16.8327 48.2795 16.3596C49.5269 15.8864 50.9475 16.4609 51.4672 17.6776C51.9177 18.8604 51.3286 20.2122 50.1159 20.7191ZM55.6251 23.8621C54.3778 24.369 52.9571 23.7945 52.472 22.6117C51.9523 21.395 52.5414 19.9756 53.7541 19.5363C55.0014 19.0294 56.4221 19.6039 56.9418 20.8205C57.4615 22.0033 56.8378 23.3551 55.6251 23.8621ZM57.2536 29.8438C56.0063 30.3507 54.551 29.7762 54.0659 28.5596C53.5462 27.343 54.1352 25.9574 55.4172 25.4842C56.6646 24.9773 58.0852 25.5856 58.605 26.7685C59.0554 27.9513 58.4664 29.3369 57.2536 29.8438ZM43.9483 22.6117C42.701 23.1186 41.2457 22.5441 40.7606 21.3274C40.2755 20.1108 40.8299 18.7252 42.1119 18.2521C43.3593 17.7452 44.7799 18.3535 45.2997 19.5363C45.7848 20.7529 45.1957 22.1385 43.9483 22.6117ZM37.1571 16.4947L40.2409 18.0831V13.6559L37.1571 14.6022C37.0878 14.5008 36.9839 14.3994 36.8453 14.298L38.0926 10.513H33.6575L34.8703 14.298C34.7663 14.3994 34.6624 14.467 34.5584 14.6022L31.5093 13.6559V18.0831L34.5584 16.4947C34.6624 16.5961 34.7663 16.7313 34.8703 16.7989L33.1378 22.0033C33.1378 22.0033 33.1378 22.0033 33.1378 22.0371C33.0685 22.3075 32.9992 22.5779 32.9992 22.8482C32.9992 24.2338 34.0733 25.3829 35.4246 25.5856H35.4939C35.5979 25.5856 35.7365 25.6194 35.8404 25.6194C35.979 25.6194 36.083 25.6194 36.1869 25.5856H36.2562C37.6422 25.3829 38.7163 24.2 38.7163 22.8482C38.7163 22.5779 38.6817 22.2737 38.5777 22.0371C38.5777 22.0371 38.5777 22.0371 38.5777 22.0033L36.8106 16.7989C36.9492 16.7313 37.0532 16.5961 37.1571 16.4947ZM35.8751 41.8749C41.7308 41.8749 47.24 42.2466 52.1949 42.9563C53.5808 37.2449 55.2786 33.933 57.0457 31.635L53.7194 30.4859C54.0659 32.1419 54.1006 32.9192 53.7194 33.933C53.1997 33.4599 52.6799 32.4798 52.2642 30.9928L50.6356 36.1973C51.6058 35.5214 52.3681 35.1159 53.2343 35.0821C51.7098 38.2588 49.7694 39.1037 48.522 38.8671C47.0321 38.5968 46.3391 37.3125 46.5817 36.1973C46.9282 34.6089 48.5567 34.2034 49.3536 36.0283C50.8435 33.0881 48.3141 32.1757 46.7203 33.0544C49.1804 30.6211 49.4576 28.492 47.4479 25.9236C44.676 27.9851 44.6413 30.0804 45.8887 32.953C44.2602 31.128 41.6961 32.1081 42.597 35.0483C43.7751 33.2909 45.3343 34.3724 45.0918 36.0959C44.8839 37.5491 42.8742 38.7319 40.4141 38.5292C36.8453 38.225 36.6374 35.8256 36.5334 33.8654C37.3996 33.6965 38.9935 34.4737 40.3448 36.3325L40.7953 30.7901C39.3746 32.2771 38.0233 32.5812 36.5334 32.615C37.0185 31.128 39.3054 28.6948 39.3054 28.6948H32.2369C32.2369 28.6948 34.4545 31.128 34.9742 32.615C33.5189 32.5812 32.2023 32.2771 30.7123 30.7901L31.1974 36.3325C32.5488 34.4737 34.1426 33.7303 34.9742 33.8654C34.8703 35.8256 34.6624 38.1912 31.1281 38.5292C28.6334 38.7319 26.6584 37.5491 26.4505 36.0959C26.208 34.4062 27.7672 33.2909 28.9106 35.0483C29.8461 32.1081 27.3167 31.128 25.6536 32.953C26.9356 30.0804 26.9009 27.9851 24.0597 25.9236C22.05 28.492 22.3272 30.6211 24.822 33.0544C23.1935 32.1757 20.6987 33.0881 22.154 36.0283C22.9509 34.1696 24.6141 34.6089 24.9606 36.1973C25.2031 37.3125 24.5101 38.5968 22.9856 38.8671C21.7729 39.1037 19.8671 38.2588 18.3079 35.0821C19.1742 35.1159 19.9364 35.5214 20.9066 36.1973L19.2781 30.9928C18.8623 32.4798 18.3426 33.4261 17.7882 33.933C17.4071 32.9192 17.4764 32.1419 17.7882 30.4859L14.4965 31.635C16.229 33.9668 17.9268 37.2787 19.3474 42.9563C24.4755 42.2466 30.0194 41.8749 35.8751 41.8749Z" fill="white"/>
</svg>
